<mxfile host="app.diagrams.net" agent="Mozilla/5.0 (Windows NT 10.0; Win64; x64) AppleWebKit/537.36 (KHTML, like Gecko) Chrome/130.0.0.0 Safari/537.36" version="24.8.2">
  <diagram name="Page-1" id="58cdce13-f638-feb5-8d6f-7d28b1aa9fa0">
    <mxGraphModel dx="842" dy="430" grid="1" gridSize="10" guides="1" tooltips="1" connect="1" arrows="1" fold="1" page="1" pageScale="1" pageWidth="1100" pageHeight="850" background="none" math="0" shadow="0">
      <root>
        <mxCell id="0" />
        <mxCell id="1" parent="0" />
        <mxCell id="e7Ygxp9shniGAsrGgu4h-7" style="edgeStyle=elbowEdgeStyle;html=1;labelBackgroundColor=none;endArrow=open;endSize=8;strokeColor=#ff0000;fontFamily=Verdana;fontSize=12;align=left;entryX=0.597;entryY=1.022;movable=1;resizable=1;rotatable=1;deletable=1;editable=1;locked=0;connectable=1;exitX=0.5;exitY=1;exitDx=0;exitDy=0;entryDx=0;entryDy=0;entryPerimeter=0;" edge="1" parent="1" source="382b91b5511bd0f7-5" target="382b91b5511bd0f7-9">
          <mxGeometry relative="1" as="geometry">
            <mxPoint x="665" y="460" as="sourcePoint" />
            <mxPoint x="275" y="460" as="targetPoint" />
            <Array as="points">
              <mxPoint x="425" y="520" />
            </Array>
          </mxGeometry>
        </mxCell>
        <mxCell id="3cde6dad864a17aa-6" style="edgeStyle=elbowEdgeStyle;html=1;labelBackgroundColor=none;endArrow=open;endSize=8;strokeColor=#ff0000;fontFamily=Verdana;fontSize=12;align=left;entryX=0.581;entryY=1;movable=1;resizable=1;rotatable=1;deletable=1;editable=1;locked=0;connectable=1;exitX=0.5;exitY=1;exitDx=0;exitDy=0;entryDx=0;entryDy=0;entryPerimeter=0;" parent="1" source="382b91b5511bd0f7-9" target="382b91b5511bd0f7-5" edge="1">
          <mxGeometry relative="1" as="geometry">
            <mxPoint x="264.6923076923076" y="575" as="sourcePoint" />
            <mxPoint x="275" y="460" as="targetPoint" />
            <Array as="points">
              <mxPoint x="415" y="510" />
            </Array>
          </mxGeometry>
        </mxCell>
        <mxCell id="e7Ygxp9shniGAsrGgu4h-2" style="edgeStyle=orthogonalEdgeStyle;html=1;entryX=0.335;entryY=0;labelBackgroundColor=none;endArrow=open;endSize=8;strokeColor=#ff0000;fontFamily=Verdana;fontSize=12;align=left;movable=1;resizable=1;rotatable=1;deletable=1;editable=1;locked=0;connectable=1;entryDx=0;entryDy=0;entryPerimeter=0;" edge="1" parent="1">
          <mxGeometry relative="1" as="geometry">
            <mxPoint x="426" y="340" as="sourcePoint" />
            <mxPoint x="426.20000000000005" y="390.0000000000001" as="targetPoint" />
          </mxGeometry>
        </mxCell>
        <mxCell id="e7Ygxp9shniGAsrGgu4h-4" style="edgeStyle=orthogonalEdgeStyle;html=1;labelBackgroundColor=none;endArrow=open;endSize=8;strokeColor=#ff0000;fontFamily=Verdana;fontSize=12;align=left;movable=1;resizable=1;rotatable=1;deletable=1;editable=1;locked=0;connectable=1;" edge="1" parent="1">
          <mxGeometry relative="1" as="geometry">
            <mxPoint x="444" y="390" as="sourcePoint" />
            <mxPoint x="443" y="340" as="targetPoint" />
            <Array as="points">
              <mxPoint x="443" y="390" />
            </Array>
          </mxGeometry>
        </mxCell>
        <mxCell id="3cde6dad864a17aa-3" style="edgeStyle=orthogonalEdgeStyle;html=1;exitX=1;exitY=0.5;entryX=0.25;entryY=0;labelBackgroundColor=none;endArrow=open;endSize=8;strokeColor=#ff0000;fontFamily=Verdana;fontSize=12;align=left;movable=1;resizable=1;rotatable=1;deletable=1;editable=1;locked=0;connectable=1;exitDx=0;exitDy=0;" parent="1" source="382b91b5511bd0f7-7" target="382b91b5511bd0f7-9" edge="1">
          <mxGeometry relative="1" as="geometry" />
        </mxCell>
        <mxCell id="e7Ygxp9shniGAsrGgu4h-5" style="edgeStyle=orthogonalEdgeStyle;html=1;exitX=0.372;exitY=0.014;entryX=1;entryY=0.25;labelBackgroundColor=none;endArrow=open;endSize=8;strokeColor=#ff0000;fontFamily=Verdana;fontSize=12;align=left;movable=1;resizable=1;rotatable=1;deletable=1;editable=1;locked=0;connectable=1;exitDx=0;exitDy=0;entryDx=0;entryDy=0;exitPerimeter=0;" edge="1" parent="1" source="382b91b5511bd0f7-9" target="382b91b5511bd0f7-7">
          <mxGeometry relative="1" as="geometry">
            <mxPoint x="505" y="320" as="sourcePoint" />
            <mxPoint x="635" y="400" as="targetPoint" />
          </mxGeometry>
        </mxCell>
        <mxCell id="2a3bc250acf0617d-11" style="edgeStyle=orthogonalEdgeStyle;html=1;entryX=0.536;entryY=0.015;labelBackgroundColor=none;endArrow=open;endSize=8;strokeColor=#ff0000;fontFamily=Verdana;fontSize=12;align=left;exitX=0;exitY=0.5;movable=1;resizable=1;rotatable=1;deletable=1;editable=1;locked=0;connectable=1;exitDx=0;exitDy=0;entryDx=0;entryDy=0;entryPerimeter=0;" parent="1" source="382b91b5511bd0f7-7" target="382b91b5511bd0f7-5" edge="1">
          <mxGeometry relative="1" as="geometry">
            <mxPoint x="455" y="380" as="sourcePoint" />
            <Array as="points">
              <mxPoint x="240" y="310" />
              <mxPoint x="240" y="391" />
            </Array>
          </mxGeometry>
        </mxCell>
        <mxCell id="2a3bc250acf0617d-9" style="edgeStyle=orthogonalEdgeStyle;html=1;labelBackgroundColor=none;endArrow=open;endSize=8;strokeColor=#ff0000;fontFamily=Verdana;fontSize=12;align=left;movable=1;resizable=1;rotatable=1;deletable=1;editable=1;locked=0;connectable=1;entryX=0.5;entryY=0;entryDx=0;entryDy=0;" parent="1" target="382b91b5511bd0f7-7" edge="1">
          <mxGeometry relative="1" as="geometry">
            <mxPoint x="435" y="230" as="sourcePoint" />
            <mxPoint x="175" y="230" as="targetPoint" />
          </mxGeometry>
        </mxCell>
        <mxCell id="2a3bc250acf0617d-13" style="edgeStyle=orthogonalEdgeStyle;html=1;exitX=1;exitY=0.5;entryX=0;entryY=0.5;labelBackgroundColor=none;endArrow=open;endSize=8;strokeColor=#ff0000;fontFamily=Verdana;fontSize=12;align=left;movable=1;resizable=1;rotatable=1;deletable=1;editable=1;locked=0;connectable=1;" parent="1" source="382b91b5511bd0f7-5" target="382b91b5511bd0f7-10" edge="1">
          <mxGeometry relative="1" as="geometry" />
        </mxCell>
        <mxCell id="3cde6dad864a17aa-13" style="edgeStyle=elbowEdgeStyle;html=1;exitX=0;exitY=0.75;entryX=1;entryY=0.75;labelBackgroundColor=none;endArrow=open;endSize=8;strokeColor=#ff0000;fontFamily=Verdana;fontSize=12;align=left;movable=1;resizable=1;rotatable=1;deletable=1;editable=1;locked=0;connectable=1;" parent="1" edge="1">
          <mxGeometry relative="1" as="geometry">
            <mxPoint x="595" y="427.0000000000001" as="sourcePoint" />
            <mxPoint x="495" y="427.0000000000001" as="targetPoint" />
          </mxGeometry>
        </mxCell>
        <mxCell id="2a3bc250acf0617d-15" style="edgeStyle=orthogonalEdgeStyle;html=1;exitX=1;exitY=0.25;entryX=0;entryY=0.25;labelBackgroundColor=none;endArrow=open;endSize=8;strokeColor=#ff0000;fontFamily=Verdana;fontSize=12;align=left;movable=1;resizable=1;rotatable=1;deletable=1;editable=1;locked=0;connectable=1;" parent="1" edge="1">
          <mxGeometry relative="1" as="geometry">
            <mxPoint x="495" y="411.0000000000001" as="sourcePoint" />
            <mxPoint x="595" y="411.0000000000001" as="targetPoint" />
          </mxGeometry>
        </mxCell>
        <mxCell id="e7Ygxp9shniGAsrGgu4h-9" value="Finite State Machine" style="swimlane;whiteSpace=wrap;html=1;" vertex="1" parent="1">
          <mxGeometry x="160" y="20" width="820" height="750" as="geometry" />
        </mxCell>
        <mxCell id="e7Ygxp9shniGAsrGgu4h-11" value="2" style="ellipse;whiteSpace=wrap;html=1;aspect=fixed;dashed=1;dashPattern=8 8;" vertex="1" parent="e7Ygxp9shniGAsrGgu4h-9">
          <mxGeometry x="410" y="267" width="30" height="30" as="geometry" />
        </mxCell>
        <mxCell id="e7Ygxp9shniGAsrGgu4h-12" value="3" style="ellipse;whiteSpace=wrap;html=1;aspect=fixed;dashed=1;dashPattern=8 8;" vertex="1" parent="e7Ygxp9shniGAsrGgu4h-9">
          <mxGeometry x="261" y="334" width="25" height="25" as="geometry" />
        </mxCell>
        <mxCell id="e7Ygxp9shniGAsrGgu4h-13" value="4" style="ellipse;whiteSpace=wrap;html=1;aspect=fixed;dashed=1;dashPattern=8 8;" vertex="1" parent="e7Ygxp9shniGAsrGgu4h-9">
          <mxGeometry x="165" y="389" width="20" height="20" as="geometry" />
        </mxCell>
        <mxCell id="e7Ygxp9shniGAsrGgu4h-44" value="" style="edgeStyle=orthogonalEdgeStyle;rounded=0;orthogonalLoop=1;jettySize=auto;html=1;exitX=0.158;exitY=0.467;exitDx=0;exitDy=0;exitPerimeter=0;entryX=0.5;entryY=0;entryDx=0;entryDy=0;" edge="1" parent="e7Ygxp9shniGAsrGgu4h-9" target="e7Ygxp9shniGAsrGgu4h-45">
          <mxGeometry relative="1" as="geometry">
            <mxPoint x="724.49" y="197.73999999999995" as="sourcePoint" />
            <mxPoint x="723.5" y="257" as="targetPoint" />
          </mxGeometry>
        </mxCell>
        <mxCell id="e7Ygxp9shniGAsrGgu4h-16" value="" style="ellipse;html=1;shape=startState;fillColor=#000000;strokeColor=#6c8ebf;rounded=1;shadow=0;comic=0;labelBackgroundColor=none;fontFamily=Verdana;fontSize=12;align=center;direction=south;movable=1;resizable=1;rotatable=1;deletable=1;editable=1;locked=0;connectable=1;" vertex="1" parent="e7Ygxp9shniGAsrGgu4h-9">
          <mxGeometry x="709" y="193" width="30" height="30" as="geometry" />
        </mxCell>
        <mxCell id="e7Ygxp9shniGAsrGgu4h-19" value="1" style="ellipse;whiteSpace=wrap;html=1;aspect=fixed;shadow=0;dashed=1;dashPattern=8 8;" vertex="1" parent="e7Ygxp9shniGAsrGgu4h-9">
          <mxGeometry x="155" y="280" width="20" height="20" as="geometry" />
        </mxCell>
        <mxCell id="e7Ygxp9shniGAsrGgu4h-15" value="5" style="ellipse;whiteSpace=wrap;html=1;aspect=fixed;dashed=1;dashPattern=8 8;" vertex="1" parent="e7Ygxp9shniGAsrGgu4h-9">
          <mxGeometry x="378" y="384" width="30" height="30" as="geometry" />
        </mxCell>
        <mxCell id="e7Ygxp9shniGAsrGgu4h-24" value="SENTINELLE" style="ellipse;shape=umlEntity;whiteSpace=wrap;html=1;" vertex="1" parent="e7Ygxp9shniGAsrGgu4h-9">
          <mxGeometry x="240" y="80" width="80" height="80" as="geometry" />
        </mxCell>
        <mxCell id="e7Ygxp9shniGAsrGgu4h-28" value="6" style="ellipse;whiteSpace=wrap;html=1;aspect=fixed;dashed=1;dashPattern=8 8;" vertex="1" parent="e7Ygxp9shniGAsrGgu4h-9">
          <mxGeometry x="272" y="480" width="30" height="30" as="geometry" />
        </mxCell>
        <mxCell id="e7Ygxp9shniGAsrGgu4h-30" value="JOUEUR" style="ellipse;shape=umlEntity;whiteSpace=wrap;html=1;" vertex="1" parent="e7Ygxp9shniGAsrGgu4h-9">
          <mxGeometry x="675" y="80" width="80" height="80" as="geometry" />
        </mxCell>
        <mxCell id="e7Ygxp9shniGAsrGgu4h-20" value="Mort" style="rounded=1;whiteSpace=wrap;html=1;arcSize=24;fillColor=#ffffc0;strokeColor=#ff0000;shadow=0;comic=0;labelBackgroundColor=none;fontFamily=Verdana;fontSize=12;fontColor=#000000;align=center;movable=1;resizable=1;rotatable=1;deletable=1;editable=1;locked=0;connectable=1;" vertex="1" parent="e7Ygxp9shniGAsrGgu4h-9">
          <mxGeometry x="524" y="668" width="120" height="60" as="geometry" />
        </mxCell>
        <mxCell id="e7Ygxp9shniGAsrGgu4h-22" value="End&amp;nbsp;&lt;div&gt;game&lt;/div&gt;" style="shape=umlFrame;whiteSpace=wrap;html=1;pointerEvents=0;" vertex="1" parent="e7Ygxp9shniGAsrGgu4h-9">
          <mxGeometry x="457" y="650" width="260" height="90" as="geometry" />
        </mxCell>
        <mxCell id="e7Ygxp9shniGAsrGgu4h-32" value="Vivant?" style="rhombus;whiteSpace=wrap;html=1;fontColor=#000000;fillColor=#ffffc0;strokeColor=#ff0000;" vertex="1" parent="e7Ygxp9shniGAsrGgu4h-9">
          <mxGeometry x="542" y="570" width="80" height="40" as="geometry" />
        </mxCell>
        <mxCell id="e7Ygxp9shniGAsrGgu4h-34" value="non" style="edgeStyle=orthogonalEdgeStyle;html=1;align=left;verticalAlign=top;endArrow=open;endSize=8;strokeColor=#ff0000;rounded=0;entryX=0.567;entryY=0.025;entryDx=0;entryDy=0;entryPerimeter=0;" edge="1" parent="e7Ygxp9shniGAsrGgu4h-9">
          <mxGeometry x="-1" relative="1" as="geometry">
            <mxPoint x="582.42" y="650.2500000000001" as="targetPoint" />
            <mxPoint x="582" y="610" as="sourcePoint" />
            <Array as="points">
              <mxPoint x="582" y="646" />
              <mxPoint x="582" y="646" />
            </Array>
          </mxGeometry>
        </mxCell>
        <mxCell id="e7Ygxp9shniGAsrGgu4h-42" value="oui" style="text;html=1;align=center;verticalAlign=middle;whiteSpace=wrap;rounded=0;" vertex="1" parent="e7Ygxp9shniGAsrGgu4h-9">
          <mxGeometry x="513" y="576" width="28" height="10" as="geometry" />
        </mxCell>
        <mxCell id="e7Ygxp9shniGAsrGgu4h-48" value="Attack?" style="rhombus;whiteSpace=wrap;html=1;fontColor=#000000;fillColor=#ffffc0;strokeColor=#66B2FF;" vertex="1" parent="e7Ygxp9shniGAsrGgu4h-9">
          <mxGeometry x="685" y="380" width="80" height="40" as="geometry" />
        </mxCell>
        <mxCell id="382b91b5511bd0f7-1" value="" style="ellipse;html=1;shape=startState;fillColor=#000000;strokeColor=#ff0000;rounded=1;shadow=0;comic=0;labelBackgroundColor=none;fontFamily=Verdana;fontSize=12;fontColor=#000000;align=center;direction=south;movable=1;resizable=1;rotatable=1;deletable=1;editable=1;locked=0;connectable=1;" parent="1" vertex="1">
          <mxGeometry x="420" y="214" width="30" height="30" as="geometry" />
        </mxCell>
        <mxCell id="382b91b5511bd0f7-5" value="Attaque" style="rounded=1;whiteSpace=wrap;html=1;arcSize=24;fillColor=#ffffc0;strokeColor=#ff0000;shadow=0;comic=0;labelBackgroundColor=none;fontFamily=Verdana;fontSize=12;fontColor=#000000;align=center;movable=1;resizable=1;rotatable=1;deletable=1;editable=1;locked=0;connectable=1;" parent="1" vertex="1">
          <mxGeometry x="175" y="390" width="120" height="60" as="geometry" />
        </mxCell>
        <mxCell id="382b91b5511bd0f7-7" value="Garde" style="rounded=1;whiteSpace=wrap;html=1;arcSize=24;fillColor=#ffffc0;strokeColor=#ff0000;shadow=0;comic=0;labelBackgroundColor=none;fontFamily=Verdana;fontSize=12;fontColor=#000000;align=center;movable=1;resizable=1;rotatable=1;deletable=1;editable=1;locked=0;connectable=1;" parent="1" vertex="1">
          <mxGeometry x="375" y="280" width="120" height="60" as="geometry" />
        </mxCell>
        <mxCell id="382b91b5511bd0f7-9" value="Recherche" style="rounded=1;whiteSpace=wrap;html=1;arcSize=24;fillColor=#ffffc0;strokeColor=#ff0000;shadow=0;comic=0;labelBackgroundColor=none;fontFamily=Verdana;fontSize=12;fontColor=#000000;align=center;movable=1;resizable=1;rotatable=1;deletable=1;editable=1;locked=0;connectable=1;" parent="1" vertex="1">
          <mxGeometry x="595" y="390" width="120" height="60" as="geometry" />
        </mxCell>
        <mxCell id="382b91b5511bd0f7-10" value="Patrouille" style="rounded=1;whiteSpace=wrap;html=1;arcSize=24;fillColor=#ffffc0;strokeColor=#ff0000;shadow=0;comic=0;labelBackgroundColor=none;fontFamily=Verdana;fontSize=12;fontColor=#000000;align=center;movable=1;resizable=1;rotatable=1;deletable=1;editable=1;locked=0;connectable=1;" parent="1" vertex="1">
          <mxGeometry x="375" y="390" width="120" height="60" as="geometry" />
        </mxCell>
        <mxCell id="e7Ygxp9shniGAsrGgu4h-23" value="Liens" style="shape=umlFrame;whiteSpace=wrap;html=1;pointerEvents=0;" vertex="1" parent="1">
          <mxGeometry x="170" y="180" width="555" height="360" as="geometry" />
        </mxCell>
        <mxCell id="e7Ygxp9shniGAsrGgu4h-31" value="Liens" style="shape=umlFrame;whiteSpace=wrap;html=1;pointerEvents=0;" vertex="1" parent="1">
          <mxGeometry x="770" y="180" width="200" height="370" as="geometry" />
        </mxCell>
        <mxCell id="e7Ygxp9shniGAsrGgu4h-36" value="" style="edgeStyle=orthogonalEdgeStyle;rounded=0;orthogonalLoop=1;jettySize=auto;html=1;fillColor=#f8cecc;strokeColor=#FF0606;entryX=0.459;entryY=1.006;entryDx=0;entryDy=0;entryPerimeter=0;" edge="1" parent="1" source="e7Ygxp9shniGAsrGgu4h-32" target="e7Ygxp9shniGAsrGgu4h-23">
          <mxGeometry relative="1" as="geometry">
            <Array as="points">
              <mxPoint x="428" y="610" />
            </Array>
          </mxGeometry>
        </mxCell>
        <mxCell id="e7Ygxp9shniGAsrGgu4h-33" value="oui" style="edgeStyle=orthogonalEdgeStyle;html=1;align=left;verticalAlign=bottom;endArrow=block;endSize=8;strokeColor=#ff0000;rounded=0;entryX=0.694;entryY=1.005;entryDx=0;entryDy=0;entryPerimeter=0;endFill=1;" edge="1" source="e7Ygxp9shniGAsrGgu4h-32" parent="1" target="e7Ygxp9shniGAsrGgu4h-31">
          <mxGeometry x="-1" relative="1" as="geometry">
            <mxPoint x="910" y="580" as="targetPoint" />
            <Array as="points">
              <mxPoint x="909" y="610" />
            </Array>
          </mxGeometry>
        </mxCell>
        <mxCell id="e7Ygxp9shniGAsrGgu4h-49" style="edgeStyle=orthogonalEdgeStyle;rounded=0;orthogonalLoop=1;jettySize=auto;html=1;entryX=0.5;entryY=0;entryDx=0;entryDy=0;" edge="1" parent="1" source="e7Ygxp9shniGAsrGgu4h-45" target="e7Ygxp9shniGAsrGgu4h-48">
          <mxGeometry relative="1" as="geometry">
            <Array as="points">
              <mxPoint x="885" y="360" />
              <mxPoint x="885" y="360" />
            </Array>
          </mxGeometry>
        </mxCell>
        <mxCell id="e7Ygxp9shniGAsrGgu4h-45" value="Idle" style="rounded=1;whiteSpace=wrap;html=1;dashed=1;dashPattern=12 12;" vertex="1" parent="1">
          <mxGeometry x="824" y="280" width="120" height="60" as="geometry" />
        </mxCell>
        <mxCell id="e7Ygxp9shniGAsrGgu4h-51" style="edgeStyle=orthogonalEdgeStyle;rounded=0;orthogonalLoop=1;jettySize=auto;html=1;strokeColor=#66B2FF;" edge="1" parent="1" source="e7Ygxp9shniGAsrGgu4h-48" target="382b91b5511bd0f7-9">
          <mxGeometry relative="1" as="geometry">
            <Array as="points">
              <mxPoint x="810" y="420" />
              <mxPoint x="810" y="420" />
            </Array>
          </mxGeometry>
        </mxCell>
        <mxCell id="e7Ygxp9shniGAsrGgu4h-52" value="" style="edgeStyle=orthogonalEdgeStyle;rounded=0;orthogonalLoop=1;jettySize=auto;html=1;entryX=0.5;entryY=1;entryDx=0;entryDy=0;strokeColor=#66B2FF;" edge="1" parent="1" source="e7Ygxp9shniGAsrGgu4h-48" target="382b91b5511bd0f7-10">
          <mxGeometry relative="1" as="geometry">
            <Array as="points">
              <mxPoint x="880" y="470" />
              <mxPoint x="435" y="470" />
            </Array>
          </mxGeometry>
        </mxCell>
      </root>
    </mxGraphModel>
  </diagram>
</mxfile>
